<mxfile host="Electron" modified="2025-05-10T06:21:50.365Z" agent="Mozilla/5.0 (Windows NT 10.0; Win64; x64) AppleWebKit/537.36 (KHTML, like Gecko) draw.io/22.1.18 Chrome/120.0.6099.199 Electron/28.1.2 Safari/537.36" etag="P9LMRyalrpWjMcs3ijKa" version="22.1.18" type="device">
  <diagram name="第 1 页" id="cHbJlrcPltNkRhz9_HGd">
    <mxGraphModel dx="1221" dy="717" grid="1" gridSize="10" guides="1" tooltips="1" connect="1" arrows="1" fold="1" page="1" pageScale="1" pageWidth="20000" pageHeight="20000" math="0" shadow="0">
      <root>
        <mxCell id="0" />
        <mxCell id="1" parent="0" />
        <mxCell id="M1bn84BjFu1knvPP7h0d-12" value="" style="rounded=0;whiteSpace=wrap;html=1;hachureGap=4;fontFamily=Architects Daughter;fontSource=https://fonts.googleapis.com/css?family=Architects+Daughter;fontSize=20;" vertex="1" parent="1">
          <mxGeometry x="650" y="197" width="350" height="220" as="geometry" />
        </mxCell>
        <mxCell id="M1bn84BjFu1knvPP7h0d-2" value="" style="rounded=0;whiteSpace=wrap;html=1;hachureGap=4;fontFamily=Architects Daughter;fontSource=https%3A%2F%2Ffonts.googleapis.com%2Fcss%3Ffamily%3DArchitects%2BDaughter;fontSize=20;" vertex="1" parent="1">
          <mxGeometry x="320" y="212" width="270" height="190" as="geometry" />
        </mxCell>
        <mxCell id="M1bn84BjFu1knvPP7h0d-3" style="edgeStyle=orthogonalEdgeStyle;rounded=0;hachureGap=4;orthogonalLoop=1;jettySize=auto;html=1;fontFamily=Architects Daughter;fontSource=https%3A%2F%2Ffonts.googleapis.com%2Fcss%3Ffamily%3DArchitects%2BDaughter;fontSize=16;" edge="1" parent="1" source="M1bn84BjFu1knvPP7h0d-1">
          <mxGeometry relative="1" as="geometry">
            <mxPoint x="455" y="177" as="targetPoint" />
          </mxGeometry>
        </mxCell>
        <mxCell id="M1bn84BjFu1knvPP7h0d-1" value="" style="rounded=0;whiteSpace=wrap;html=1;hachureGap=4;fontFamily=Architects Daughter;fontSource=https%3A%2F%2Ffonts.googleapis.com%2Fcss%3Ffamily%3DArchitects%2BDaughter;fontSize=20;" vertex="1" parent="1">
          <mxGeometry x="355" y="237" width="200" height="140" as="geometry" />
        </mxCell>
        <mxCell id="M1bn84BjFu1knvPP7h0d-4" value="&lt;font face=&quot;Georgia&quot; style=&quot;font-size: 18px;&quot;&gt;gridlayout&lt;/font&gt;" style="text;html=1;align=center;verticalAlign=middle;resizable=0;points=[];autosize=1;strokeColor=none;fillColor=none;fontSize=20;fontFamily=Architects Daughter;" vertex="1" parent="1">
          <mxGeometry x="400" y="140" width="110" height="40" as="geometry" />
        </mxCell>
        <mxCell id="M1bn84BjFu1knvPP7h0d-5" value="&lt;font size=&quot;3&quot;&gt;namelb&lt;/font&gt;" style="rounded=0;whiteSpace=wrap;html=1;hachureGap=4;fontFamily=Architects Daughter;fontSource=https%3A%2F%2Ffonts.googleapis.com%2Fcss%3Ffamily%3DArchitects%2BDaughter;fontSize=20;" vertex="1" parent="1">
          <mxGeometry x="415" y="237" width="70" height="80" as="geometry" />
        </mxCell>
        <mxCell id="M1bn84BjFu1knvPP7h0d-6" value="&lt;font data-font-src=&quot;https://fonts.googleapis.com/css?family=Architects+Daughter&quot; face=&quot;Architects Daughter&quot; style=&quot;font-size: 16px;&quot;&gt;iconlb&lt;/font&gt;" style="rounded=0;whiteSpace=wrap;html=1;hachureGap=4;fontFamily=Architects Daughter;fontSource=https%3A%2F%2Ffonts.googleapis.com%2Fcss%3Ffamily%3DArchitects%2BDaughter;fontSize=20;" vertex="1" parent="1">
          <mxGeometry x="485" y="237" width="70" height="80" as="geometry" />
        </mxCell>
        <mxCell id="M1bn84BjFu1knvPP7h0d-7" value="&lt;font size=&quot;3&quot;&gt;spacer&lt;/font&gt;" style="rounded=0;whiteSpace=wrap;html=1;hachureGap=4;fontFamily=Architects Daughter;fontSource=https%3A%2F%2Ffonts.googleapis.com%2Fcss%3Ffamily%3DArchitects%2BDaughter;fontSize=20;" vertex="1" parent="1">
          <mxGeometry x="355" y="317" width="60" height="60" as="geometry" />
        </mxCell>
        <mxCell id="M1bn84BjFu1knvPP7h0d-8" value="&lt;font size=&quot;3&quot;&gt;bubble&lt;/font&gt;" style="rounded=0;whiteSpace=wrap;html=1;hachureGap=4;fontFamily=Architects Daughter;fontSource=https%3A%2F%2Ffonts.googleapis.com%2Fcss%3Ffamily%3DArchitects%2BDaughter;fontSize=20;" vertex="1" parent="1">
          <mxGeometry x="415" y="317" width="70" height="60" as="geometry" />
        </mxCell>
        <mxCell id="M1bn84BjFu1knvPP7h0d-9" value="&lt;font face=&quot;Georgia&quot;&gt;Self&lt;/font&gt;" style="text;html=1;align=center;verticalAlign=middle;resizable=0;points=[];autosize=1;strokeColor=none;fillColor=none;fontSize=20;fontFamily=Architects Daughter;" vertex="1" parent="1">
          <mxGeometry x="415" y="417" width="60" height="40" as="geometry" />
        </mxCell>
        <mxCell id="M1bn84BjFu1knvPP7h0d-10" value="&lt;font face=&quot;Georgia&quot;&gt;BubbleFrame&lt;/font&gt;" style="text;html=1;align=center;verticalAlign=middle;resizable=0;points=[];autosize=1;strokeColor=none;fillColor=none;fontSize=20;fontFamily=Architects Daughter;" vertex="1" parent="1">
          <mxGeometry x="730" y="440" width="140" height="40" as="geometry" />
        </mxCell>
        <mxCell id="M1bn84BjFu1knvPP7h0d-16" style="edgeStyle=orthogonalEdgeStyle;rounded=0;hachureGap=4;orthogonalLoop=1;jettySize=auto;html=1;fontFamily=Architects Daughter;fontSource=https%3A%2F%2Ffonts.googleapis.com%2Fcss%3Ffamily%3DArchitects%2BDaughter;fontSize=16;" edge="1" parent="1" source="M1bn84BjFu1knvPP7h0d-13">
          <mxGeometry relative="1" as="geometry">
            <mxPoint x="795" y="170" as="targetPoint" />
          </mxGeometry>
        </mxCell>
        <mxCell id="M1bn84BjFu1knvPP7h0d-13" value="" style="rounded=0;whiteSpace=wrap;html=1;hachureGap=4;fontFamily=Architects Daughter;fontSource=https://fonts.googleapis.com/css?family=Architects+Daughter;fontSize=20;" vertex="1" parent="1">
          <mxGeometry x="700" y="235" width="190" height="150" as="geometry" />
        </mxCell>
        <mxCell id="M1bn84BjFu1knvPP7h0d-15" value="&lt;font style=&quot;font-size: 18px;&quot; face=&quot;Georgia&quot;&gt;m_pHLayout&lt;/font&gt;" style="text;html=1;align=center;verticalAlign=middle;resizable=0;points=[];autosize=1;strokeColor=none;fillColor=none;fontSize=20;fontFamily=Architects Daughter;" vertex="1" parent="1">
          <mxGeometry x="730" y="120" width="130" height="40" as="geometry" />
        </mxCell>
        <mxCell id="M1bn84BjFu1knvPP7h0d-17" value="3" style="text;html=1;align=center;verticalAlign=middle;resizable=0;points=[];autosize=1;strokeColor=none;fillColor=none;fontSize=20;fontFamily=Architects Daughter;" vertex="1" parent="1">
          <mxGeometry x="610" y="290" width="30" height="40" as="geometry" />
        </mxCell>
        <mxCell id="M1bn84BjFu1knvPP7h0d-18" value="3" style="text;html=1;align=center;verticalAlign=middle;resizable=0;points=[];autosize=1;strokeColor=none;fillColor=none;fontSize=20;fontFamily=Architects Daughter;" vertex="1" parent="1">
          <mxGeometry x="700" y="150" width="30" height="40" as="geometry" />
        </mxCell>
        <mxCell id="M1bn84BjFu1knvPP7h0d-19" value="3" style="text;html=1;align=center;verticalAlign=middle;resizable=0;points=[];autosize=1;strokeColor=none;fillColor=none;fontSize=20;fontFamily=Architects Daughter;" vertex="1" parent="1">
          <mxGeometry x="680" y="440" width="30" height="40" as="geometry" />
        </mxCell>
        <mxCell id="M1bn84BjFu1knvPP7h0d-21" value="&lt;font style=&quot;font-size: 12px;&quot;&gt;WIDTH_TRIANGLE + 3&lt;/font&gt;" style="text;html=1;align=center;verticalAlign=middle;resizable=0;points=[];autosize=1;strokeColor=none;fillColor=none;fontSize=20;fontFamily=Architects Daughter;" vertex="1" parent="1">
          <mxGeometry x="1010" y="290" width="150" height="40" as="geometry" />
        </mxCell>
        <mxCell id="M1bn84BjFu1knvPP7h0d-23" value="" style="endArrow=none;html=1;rounded=0;hachureGap=4;fontFamily=Architects Daughter;fontSource=https%3A%2F%2Ffonts.googleapis.com%2Fcss%3Ffamily%3DArchitects%2BDaughter;fontSize=16;" edge="1" parent="1">
          <mxGeometry width="50" height="50" relative="1" as="geometry">
            <mxPoint x="930" y="280" as="sourcePoint" />
            <mxPoint x="1000" y="280" as="targetPoint" />
          </mxGeometry>
        </mxCell>
        <mxCell id="M1bn84BjFu1knvPP7h0d-24" value="" style="endArrow=none;html=1;rounded=0;hachureGap=4;fontFamily=Architects Daughter;fontSource=https%3A%2F%2Ffonts.googleapis.com%2Fcss%3Ffamily%3DArchitects%2BDaughter;fontSize=16;" edge="1" parent="1">
          <mxGeometry width="50" height="50" relative="1" as="geometry">
            <mxPoint x="930" y="280" as="sourcePoint" />
            <mxPoint x="930" y="360" as="targetPoint" />
          </mxGeometry>
        </mxCell>
        <mxCell id="M1bn84BjFu1knvPP7h0d-25" value="" style="endArrow=none;html=1;rounded=0;hachureGap=4;fontFamily=Architects Daughter;fontSource=https%3A%2F%2Ffonts.googleapis.com%2Fcss%3Ffamily%3DArchitects%2BDaughter;fontSize=16;" edge="1" parent="1">
          <mxGeometry width="50" height="50" relative="1" as="geometry">
            <mxPoint x="1000" y="280" as="sourcePoint" />
            <mxPoint x="930" y="360" as="targetPoint" />
          </mxGeometry>
        </mxCell>
        <mxCell id="M1bn84BjFu1knvPP7h0d-26" value="" style="endArrow=none;html=1;rounded=0;sketch=1;hachureGap=4;jiggle=2;curveFitting=1;fontFamily=Architects Daughter;fontSource=https%3A%2F%2Ffonts.googleapis.com%2Fcss%3Ffamily%3DArchitects%2BDaughter;fontSize=16;" edge="1" parent="1">
          <mxGeometry width="50" height="50" relative="1" as="geometry">
            <mxPoint x="655" y="306.5" as="sourcePoint" />
            <mxPoint x="700" y="306.5" as="targetPoint" />
          </mxGeometry>
        </mxCell>
        <mxCell id="M1bn84BjFu1knvPP7h0d-28" value="" style="endArrow=none;html=1;rounded=0;hachureGap=4;fontFamily=Architects Daughter;fontSource=https%3A%2F%2Ffonts.googleapis.com%2Fcss%3Ffamily%3DArchitects%2BDaughter;fontSize=16;" edge="1" parent="1">
          <mxGeometry width="50" height="50" relative="1" as="geometry">
            <mxPoint x="930" y="197" as="sourcePoint" />
            <mxPoint x="930" y="417" as="targetPoint" />
          </mxGeometry>
        </mxCell>
        <mxCell id="M1bn84BjFu1knvPP7h0d-29" value="3" style="text;html=1;align=center;verticalAlign=middle;resizable=0;points=[];autosize=1;strokeColor=none;fillColor=none;fontSize=20;fontFamily=Architects Daughter;" vertex="1" parent="1">
          <mxGeometry x="900" y="337" width="30" height="40" as="geometry" />
        </mxCell>
      </root>
    </mxGraphModel>
  </diagram>
</mxfile>
